<?xml version="1.0" encoding="UTF-8" standalone="no"?>
<svg width="211px" height="33px" viewBox="0 0 211 33" version="1.1" xmlns="http://www.w3.org/2000/svg" xmlns:xlink="http://www.w3.org/1999/xlink" xmlns:sketch="http://www.bohemiancoding.com/sketch/ns">
    <!-- Generator: Sketch 3.3.3 (12072) - http://www.bohemiancoding.com/sketch -->
    <title>logo</title>
    <desc>Created with Sketch.</desc>
    <defs></defs>
    <g id="Page-1" stroke="none" stroke-width="1" fill="none" fill-rule="evenodd" sketch:type="MSPage">
        <g id="Namespace" sketch:type="MSArtboardGroup" transform="translate(-618.000000, -323.000000)">
            <g id="logo" sketch:type="MSLayerGroup" transform="translate(618.000000, 323.000000)">
                <path d="M104.512766,23.7488836 L104.512766,31.4696298 L210.002764,31.4696298 L210.002764,23.6296296" id="Path-1" stroke="#000000" stroke-width="1.9009009" stroke-linecap="round" stroke-linejoin="round" sketch:type="MSShapeGroup"></path>
                <path d="M14.6313385,27 L4.24802932,6.95265172 L4.24802932,27 L0.0615085691,27 L0.0615085691,1.47513338 L5.90788337,1.47513338 L15.5534796,20.1208271 L15.5534796,1.47513338 L19.7400004,1.47513338 L19.7400004,27 L14.6313385,27 Z M23.5207791,27 L32.0966916,1.47513338 L37.6848669,1.47513338 L46.2976651,27 L41.834502,27 L39.8795628,21.1167396 L29.7544531,21.1167396 L27.8179567,27 L23.5207791,27 Z M30.9901222,17.2621896 L38.5885652,17.2621896 L34.8077865,5.77231107 L30.9901222,17.2621896 Z M69.8675925,27 L69.8675925,7.85635003 L63.3019476,20.2683697 L60.7199524,20.2683697 L54.1911932,7.85635003 L54.1911932,27 L50.0784437,27 L50.0784437,1.47513338 L55.3715339,1.47513338 L62.0847213,14.4957662 L68.8532373,1.47513338 L74.0172276,1.47513338 L74.0172276,27 L69.8675925,27 Z M80.1402448,27 L80.1402448,1.47513338 L96.2223862,1.47513338 L96.2223862,5.3112405 L84.4374224,5.3112405 L84.4374224,11.7846713 L94.4518752,11.7846713 L94.4518752,15.6392212 L84.4374224,15.6392212 L84.4374224,23.0716788 L96.2223862,23.0716788 L96.2223862,27 L80.1402448,27 Z" id="name" fill="#000000" sketch:type="MSShapeGroup"></path>
                <path d="M127.04846,17.4398003 C127.04846,18.4941311 126.863172,19.3944744 126.49259,20.1408571 C126.122008,20.8872399 125.610509,21.4979075 124.958076,21.9728783 C124.305644,22.4478491 123.541005,22.794938 122.664135,23.0141553 C121.787266,23.2333726 120.842558,23.3429796 119.829983,23.3429796 C118.765213,23.3429796 117.830944,23.2333726 117.027147,23.0141553 C116.22335,22.794938 115.518734,22.4896042 114.913277,22.0981447 C114.307819,21.7066852 113.783271,21.2395506 113.339617,20.6967268 C112.895963,20.153903 112.496681,19.5588935 112.141757,18.9116805 L113.425738,18.2696902 C113.613639,18.6976859 113.877217,19.1361139 114.216482,19.5849874 C114.555747,20.033861 114.978517,20.4409727 115.484805,20.8063349 C115.991092,21.1716971 116.586102,21.4718115 117.269851,21.7066872 C117.9536,21.9415629 118.733898,22.058999 119.610767,22.058999 C120.55027,22.058999 121.39059,21.9624404 122.131753,21.7693204 C122.872916,21.5762004 123.501852,21.2865247 124.018578,20.9002847 C124.535305,20.5140447 124.929368,20.0338616 125.20078,19.459721 C125.472192,18.8855805 125.607896,18.2122803 125.607896,17.4398003 C125.607896,16.7612705 125.524386,16.1740901 125.357363,15.6782414 C125.19034,15.1823928 124.882397,14.7387453 124.433523,14.3472859 C123.98465,13.9558264 123.368763,13.6035182 122.585844,13.2903506 C121.802925,12.977183 120.800804,12.6588007 119.57945,12.3351942 C118.149318,11.9698321 116.985396,11.6149141 116.087649,11.2704298 C115.189902,10.9259454 114.482676,10.5397112 113.965949,10.1117155 C113.449223,9.68371984 113.096915,9.18526892 112.909014,8.61634782 C112.721114,8.04742672 112.627165,7.35585869 112.627165,6.54162298 C112.627165,5.69607051 112.765478,4.91838269 113.04211,4.20853618 C113.318741,3.49868966 113.736291,2.89063173 114.294774,2.38434415 C114.853256,1.87805656 115.555263,1.48138358 116.400815,1.1943133 C117.246368,0.907243015 118.243269,0.763710027 119.391551,0.763710027 C121.030461,0.763710027 122.416207,1.10036013 123.548829,1.77367042 C124.681452,2.44698072 125.62355,3.41517596 126.375153,4.6782852 L125.122489,5.41422533 C124.861516,4.94447396 124.558792,4.50343623 124.214307,4.09109892 C123.869823,3.67876161 123.46793,3.32123399 123.008618,3.01850533 C122.549306,2.71577667 122.027367,2.47829481 121.442788,2.30605264 C120.858208,2.13381048 120.195347,2.04769068 119.454184,2.04769068 C118.514681,2.04769068 117.708287,2.154688 117.034976,2.36868585 C116.361666,2.58268369 115.805802,2.88540781 115.367367,3.27686729 C114.928933,3.66832676 114.607941,4.14068077 114.404382,4.6939435 C114.200823,5.24720622 114.099045,5.86309322 114.099045,6.54162298 C114.099045,7.15751922 114.164287,7.67423797 114.294774,8.09179475 C114.42526,8.50935152 114.699278,8.8773179 115.116834,9.19570494 C115.534391,9.51409198 116.129401,9.81159672 116.901881,10.0882281 C117.674361,10.3648594 118.69736,10.6649739 119.970908,10.9885804 C121.2027,11.3121869 122.264844,11.648837 123.157372,11.9985408 C124.049899,12.3482446 124.783223,12.7657951 125.357363,13.2512048 C125.931504,13.7366146 126.356883,14.3159659 126.633515,14.9892762 C126.910146,15.6625865 127.04846,16.4794197 127.04846,17.4398003 L127.04846,17.4398003 Z M145.086822,7.77862873 C145.086822,9.1148104 144.93285,10.2369774 144.624902,11.1451634 C144.316954,12.0533494 143.860258,12.7840628 143.254801,13.3373255 C142.649343,13.8905882 141.897753,14.2898709 141.000005,14.5351855 C140.102258,14.7805001 139.068821,14.9031555 137.899662,14.9031555 L134.04772,14.9031555 L134.04772,22.8888889 L132.701106,22.8888889 L132.701106,1.21780075 L138.275461,1.21780075 C139.53857,1.21780075 140.603324,1.37960157 141.469755,1.70320807 C142.336185,2.02681457 143.038192,2.47829106 143.575796,3.05765108 C144.1134,3.6370111 144.499635,4.32857913 144.73451,5.13237592 C144.969386,5.9361727 145.086822,6.81824816 145.086822,7.77862873 L145.086822,7.77862873 Z M143.599283,7.88823684 C143.599283,6.86522274 143.474018,6.00663451 143.223484,5.31244638 C142.97295,4.61825824 142.618032,4.05717474 142.15872,3.62917905 C141.699407,3.20118336 141.138324,2.89323986 140.475452,2.70533931 C139.812581,2.51743876 139.068819,2.4234899 138.244145,2.4234899 L134.04772,2.4234899 L134.04772,13.6818081 L137.837029,13.6818081 C138.849604,13.6818081 139.721241,13.5852495 140.451965,13.3921295 C141.182689,13.1990095 141.780308,12.8780176 142.24484,12.429144 C142.709372,11.9802705 143.051242,11.385261 143.270459,10.6440978 C143.489676,9.90293449 143.599283,8.98432337 143.599283,7.88823684 L143.599283,7.88823684 Z M148.124532,22.8888889 L155.750125,1.21780075 L157.425563,1.21780075 L165.145105,22.8888889 L163.579275,22.8888889 L161.23053,15.9992366 L151.976474,15.9992366 L149.627729,22.8888889 L148.124532,22.8888889 Z M152.38359,14.7778891 L160.792098,14.7778891 L156.548698,2.4548065 L152.38359,14.7778891 Z M185.219047,18.9743137 C184.885001,19.6110878 184.501377,20.1956585 184.068162,20.7280434 C183.634946,21.2604283 183.126057,21.7197338 182.541477,22.1059739 C181.956898,22.4922139 181.275768,22.794938 180.498069,23.0141553 C179.720369,23.2333726 178.814807,23.3429796 177.781354,23.3429796 C176.246833,23.3429796 174.9185,23.1054978 173.796316,22.6305269 C172.674132,22.1555561 171.747692,21.4457202 171.016968,20.500998 C170.286244,19.5562758 169.746038,18.3793053 169.396334,16.9700512 C169.04663,15.5607971 168.871781,13.9219114 168.871781,12.0533448 C168.871781,10.2787285 169.036191,8.6920366 169.365017,7.29322141 C169.693843,5.89440622 170.213172,4.71221634 170.923018,3.74661631 C171.632865,2.78101627 172.546256,2.04247381 173.663221,1.53096676 C174.780185,1.01945971 176.121566,0.763710027 177.687404,0.763710027 C178.59559,0.763710027 179.420252,0.852439511 180.161415,1.02990114 C180.902579,1.20736277 181.57066,1.47616091 182.165678,1.83630362 C182.760696,2.19644634 183.287854,2.64270345 183.747166,3.17508833 C184.206479,3.70747322 184.613591,4.32336022 184.968514,5.02276781 L183.71585,5.72739134 C183.402682,5.1114951 183.055593,4.57389882 182.674573,4.11458637 C182.293552,3.65527392 181.860344,3.27164939 181.374934,2.96370127 C180.889524,2.65575315 180.341489,2.42610037 179.730812,2.27473604 C179.120135,2.12337171 178.428567,2.04769068 177.656087,2.04769068 C176.330345,2.04769068 175.205568,2.26168532 174.281724,2.68968101 C173.357879,3.1176767 172.603679,3.74922185 172.019099,4.58433539 C171.43452,5.41944894 171.00914,6.46332521 170.742948,7.71599553 C170.476755,8.96866585 170.343661,10.4144345 170.343661,12.0533448 C170.343661,13.6087438 170.471536,15.0049283 170.727289,16.2419403 C170.983043,17.4789522 171.403203,18.5280478 171.987783,19.3892587 C172.572362,20.2504695 173.339611,20.9107213 174.289553,21.3700337 C175.239494,21.8293462 176.413855,22.058999 177.81267,22.058999 C178.762612,22.058999 179.579445,21.9415629 180.263194,21.7066872 C180.946944,21.4718115 181.531514,21.1716971 182.016924,20.8063349 C182.502334,20.4409727 182.904226,20.033861 183.222613,19.5849874 C183.541,19.1361139 183.809798,18.6976859 184.029016,18.2696902 L185.219047,18.9743137 Z M190.198386,22.8888889 L190.198386,1.21780075 L202.615419,1.21780075 L202.615419,2.4234899 L191.545,2.4234899 L191.545,10.706731 L201.096564,10.706731 L201.096564,11.9280784 L191.545,11.9280784 L191.545,21.6675414 L202.615419,21.6675414 L202.615419,22.8888889 L190.198386,22.8888889 Z" id="SPACE" fill="#000000" sketch:type="MSShapeGroup"></path>
            </g>
        </g>
    </g>
</svg>